<svg xmlns="http://www.w3.org/2000/svg" width="18" height="18" viewBox="0 0 18 18" fill="none">
<path d="M0.882599 3.95588C0.882599 3.51935 1.19377 3.16489 1.57799 3.16489H3.98164C4.45877 3.15046 4.87997 2.80502 5.04232 2.29452L5.06938 2.20433L5.1731 1.85167C5.23623 1.63521 5.29125 1.4458 5.36882 1.27714C5.67367 0.610609 6.23828 0.147917 6.89038 0.0297638C7.05634 -6.71993e-09 7.23131 0 7.43154 0H10.5685C10.7696 0 10.9446 -6.71993e-09 11.1096 0.0297638C11.7617 0.147917 12.3272 0.610609 12.6312 1.27714C12.7088 1.4458 12.7638 1.6343 12.8278 1.85167L12.9306 2.20433L12.9577 2.29452C13.12 2.80502 13.6251 3.15136 14.1031 3.16489H16.4211C16.8062 3.16489 17.1174 3.51935 17.1174 3.95588C17.1174 4.39242 16.8062 4.74688 16.422 4.74688H1.57709C1.19377 4.74688 0.882599 4.39242 0.882599 3.95588Z" fill="white"/>
<path fill-rule="evenodd" clip-rule="evenodd" d="M8.63606 17.9998H9.36482C11.8749 17.9998 13.1295 17.9998 13.9466 17.2007C14.762 16.4016 14.845 15.091 15.0118 12.47L15.2526 8.69272C15.3428 7.27037 15.3879 6.55875 14.9794 6.10868C14.5699 5.65771 13.879 5.65771 12.4963 5.65771H5.50454C4.12188 5.65771 3.43009 5.65771 3.02152 6.10868C2.61204 6.55965 2.65714 7.27037 2.74823 8.69272L2.98905 12.47C3.15591 15.091 3.23888 16.4025 4.05514 17.2007C4.87139 17.9998 6.12598 17.9998 8.63606 17.9998ZM7.41845 9.1509C7.38237 8.75947 7.05046 8.47445 6.67886 8.51324C6.30636 8.55202 6.03578 8.90107 6.07276 9.29251L6.52373 14.0394C6.55981 14.4308 6.89172 14.7158 7.26331 14.6771C7.63581 14.6383 7.90639 14.2892 7.86941 13.8978L7.41845 9.1509ZM11.3229 8.51324C11.6945 8.55202 11.966 8.90107 11.9281 9.29251L11.4771 14.0394C11.4411 14.4308 11.1083 14.7158 10.7376 14.6771C10.3651 14.6383 10.0945 14.2892 10.1315 13.8978L10.5824 9.1509C10.6185 8.75947 10.9522 8.47445 11.3229 8.51324Z" fill="white"/>
</svg>