<svg xmlns="http://www.w3.org/2000/svg" width="18" height="18" viewBox="0 0 18 18" fill="none">
  <path d="M12.305 0.954364C12.9361 0.337812 13.7849 -0.00508084 14.6672 5.6914e-05C15.5495 0.00519467 16.3942 0.357949 17.0181 0.981809C17.642 1.60567 17.9948 2.45033 17.9999 3.33259C18.0051 4.21484 17.6622 5.06355 17.0456 5.69464L16.2906 6.44956L16.6692 6.82816C17.0917 7.25075 17.3291 7.82384 17.3291 8.42139C17.3291 9.01894 17.0917 9.59203 16.6692 10.0146L15.61 11.0738C15.5042 11.1794 15.3608 11.2387 15.2113 11.2386C15.0618 11.2385 14.9184 11.179 14.8128 11.0732C14.7071 10.9674 14.6478 10.824 14.6479 10.6745C14.648 10.525 14.7075 10.3817 14.8133 10.276L15.8725 9.21801C16.0838 9.00671 16.2025 8.72017 16.2025 8.42139C16.2025 8.12261 16.0838 7.83607 15.8725 7.62477L15.4939 7.24618L6.50184 16.2388C6.12011 16.6207 5.63733 16.8857 5.11021 17.0028L0.686276 17.9864C0.593666 18.0071 0.49733 18.0041 0.406205 17.9776C0.315081 17.9511 0.23212 17.9021 0.16502 17.835C0.0979203 17.7679 0.0488553 17.6849 0.0223773 17.5938C-0.00410076 17.5027 -0.00713388 17.4064 0.0135592 17.3138L1.00291 12.8631C1.1156 12.3538 1.37251 11.8862 1.74099 11.5177L12.305 0.954364Z" fill="white"/>
</svg>