<svg xmlns="http://www.w3.org/2000/svg" width="14" height="20" viewBox="0 0 14 20" fill="none">
  <path fill-rule="evenodd" clip-rule="evenodd" d="M7.68905 19.2793C10.4371 16.276 13.9951 10.9671 13.9951 7.41011C13.9951 3.54684 10.8633 0.415039 6.99999 0.415039C3.13671 0.415039 0.00491333 3.54684 0.00491333 7.41011C0.00491333 10.9671 3.56286 16.276 6.31092 19.2793C6.68375 19.6868 7.31623 19.6868 7.68905 19.2793ZM6.99999 10.2079C8.5453 10.2079 9.79802 8.95522 9.79802 7.40991C9.79802 5.8646 8.5453 4.61188 6.99999 4.61188C5.45468 4.61188 4.20196 5.8646 4.20196 7.40991C4.20196 8.95522 5.45468 10.2079 6.99999 10.2079Z" fill="white"/>
</svg>